<svg version="1.1" viewBox="0.0 0.0 2048.0 2048.0" fill="none" stroke="none" stroke-linecap="square" stroke-miterlimit="10" xmlns:xlink="http://www.w3.org/1999/xlink" xmlns="http://www.w3.org/2000/svg"><clipPath id="p.0"><path d="m0 0l2048.0 0l0 2048.0l-2048.0 0l0 -2048.0z" clip-rule="nonzero"/></clipPath><g clip-path="url(#p.0)"><path fill="#000000" fill-opacity="0.0" d="m0 0l2048.0 0l0 2048.0l-2048.0 0z" fill-rule="evenodd"/><defs><linearGradient id="p.1" gradientUnits="userSpaceOnUse" gradientTransform="matrix(53.817367859105325 0.0 0.0 53.817367859105325 0.0 0.0)" spreadMethod="pad" x1="-19.02730870444755" y1="19.042465499574227" x2="19.042463975512376" y2="57.08193830583747"><stop offset="0.0" stop-color="#000000"/><stop offset="0.79" stop-color="#073763"/><stop offset="0.9" stop-color="#3d85c6"/><stop offset="1.0" stop-color="#0b5394"/></linearGradient></defs><path fill="url(#p.1)" d="m0 0l2048.0 0l0 2048.0l-2048.0 0z" fill-rule="evenodd"/><path fill="#000000" fill-opacity="0.0" d="m1480.6929 1651.1497l567.3071 0l0 396.85034l-567.3071 0z" fill-rule="evenodd"/><defs><linearGradient id="p.2" gradientUnits="userSpaceOnUse" gradientTransform="matrix(35.46141296602765 -35.46141296601147 35.46141296601147 35.46141296602765 0.0 0.0)" spreadMethod="pad" x1="-20.78824414574392" y1="36.45991657621387" x2="14.673168820283724" y2="36.45991657621387"><stop offset="0.0" stop-color="#990000"/><stop offset="1.0" stop-color="#ff0000"/></linearGradient></defs><path fill="url(#p.2)" d="m17.881397 1492.2424l1257.5118 -1257.5118l537.8583 537.8583l-1257.5117 1257.5118z" fill-rule="evenodd"/><path fill="#00074c" d="m793.11926 1273.8088l-92.951355 92.951416l76.01398 76.013916l107.97742 -107.97742l23.124573 23.124634l-136.26166 136.26172l-214.48541 -214.48535l134.79224 -134.79224l23.279297 23.279297l-106.507996 106.507935l68.94293 68.94287l92.951416 -92.951416l23.124573 23.124634zm149.37207 48.90503l-214.48535 -214.48535l70.12512 -70.12512q34.91339 -34.91333 66.95416 -38.073242q32.029724 -3.1708984 60.313965 25.113403q15.026062 15.026001 18.053345 35.134277q3.0272827 20.108398 -5.380615 41.17798q22.25177 -12.529053 45.97296 -8.982422q23.710205 3.5355225 42.55896 22.384277q28.869873 28.869873 26.671265 64.08154q-2.2097168 35.200684 -36.39392 69.38489l-74.38989 74.38977zm-72.0365 -128.60498l77.19617 77.19617l46.70221 -46.70215q19.732727 -19.732788 20.90387 -41.38794q1.18219 -21.666138 -16.782776 -39.631104q-38.747192 -38.747192 -80.875305 3.3808594l-47.144165 47.144165zm-22.682617 -22.682617l42.72467 -42.72473q18.561584 -18.561646 20.39563 -38.957153q1.8450928 -20.406738 -14.064819 -36.31665q-17.677612 -17.677612 -36.01825 -15.379517q-18.340576 2.276001 -39.399048 23.334473l-41.84088 41.84082l68.2027 68.20276zm344.9972 -210.95636l-89.85779 89.85785l35.79724 76.16858l-29.16809 29.168213l-132.58252 -296.38824l24.748718 -24.748718l296.5429 132.4278l-29.024536 29.024536l-76.45593 -35.51001zm-104.58545 58.049072l72.92041 -72.92041l-136.8584 -63.783264l63.93799 136.70367z" fill-rule="nonzero"/><path fill="#990000" d="m38.42419 1548.4668l38.425198 0l-38.425198 -38.42517z" fill-rule="evenodd"/><path fill="#990000" d="m76.84939 1586.892l38.4252 0l-38.4252 -38.42517z" fill-rule="evenodd"/><path fill="#990000" d="m115.27459 1625.3171l38.425194 0l-38.425194 -38.42517z" fill-rule="evenodd"/><path fill="#990000" d="m153.69978 1663.7424l38.4252 0l-38.4252 -38.425293z" fill-rule="evenodd"/><path fill="#990000" d="m192.12498 1702.1676l38.425186 0l-38.425186 -38.42517z" fill-rule="evenodd"/><path fill="#990000" d="m230.55017 1740.5928l38.4252 0l-38.4252 -38.42517z" fill-rule="evenodd"/><path fill="#990000" d="m268.97537 1779.018l38.4252 0l-38.4252 -38.42517z" fill-rule="evenodd"/><path fill="#990000" d="m307.40057 1817.4431l38.4252 0l-38.4252 -38.42517z" fill-rule="evenodd"/><path fill="#990000" d="m345.82578 1855.8684l38.4252 0l-38.4252 -38.425293z" fill-rule="evenodd"/><path fill="#990000" d="m384.25098 1894.2936l38.42517 0l-38.42517 -38.42517z" fill-rule="evenodd"/><path fill="#990000" d="m422.67615 1932.7188l38.4252 0l-38.4252 -38.42517z" fill-rule="evenodd"/><path fill="#990000" d="m461.10135 1971.1439l38.4252 0l-38.4252 -38.42517z" fill-rule="evenodd"/><path fill="#990000" d="m499.52655 2009.5691l38.42517 0l-38.42517 -38.42517z" fill-rule="evenodd"/><path fill="#990000" d="m-0.001312336 1510.042l19.212599 -19.149658l19.212599 19.149658z" fill-rule="evenodd"/><path fill="#990000" d="m537.9514 2009.5696l19.149658 19.212524l-19.149658 19.212646z" fill-rule="evenodd"/></g></svg>